<?xml version="1.0" encoding="utf-8"?>
<!-- Generator: Adobe Illustrator 24.0.1, SVG Export Plug-In . SVG Version: 6.00 Build 0)  -->
<svg version="1.1" id="Layer_1" xmlns="http://www.w3.org/2000/svg" xmlns:xlink="http://www.w3.org/1999/xlink" x="0px" y="0px"
	 viewBox="0 0 500 500" style="enable-background:new 0 0 500 500;" xml:space="preserve">
<style type="text/css">
	.st0{fill:#1A1A1A;}
	.st1{fill:#F9ECBF;}
	.st2{fill:#FCD3A4;}
	.st3{display:none;fill:#FCD3A4;}
	.st4{fill:#FFF6DD;}
	.st5{fill:#FCDBE0;}
	.st6{fill:#3F2217;}
	.st7{opacity:0.53;fill:#EA2253;}
	.st8{fill:#EA2253;}
</style>
<g>
	<g>
		<g>
			<path class="st0" d="M263.1,411.46c-5.48,0-11.05-0.04-16.56-0.13c-64.4-0.98-124.55-7.75-165.02-18.58
				c-13.39-3.59-24.38-7.58-32.64-11.88l-0.25-0.13c-0.25-0.13-0.49-0.27-0.73-0.42l-0.23-0.15c-13.59-8.72-24.16-20.4-30.56-33.76
				c-6.17-12.89-8.43-27.13-6.53-41.17c1.99-14.71,8.42-28.56,18.6-40.04c8.55-9.65,19.62-17.41,32.37-22.75
				c1.88-0.79,3.47-2.15,4.48-3.93c3.17-5.57,6.62-10.97,10.34-16.19c2.17-3.05,2.27-7.11,0.27-10.28
				c-9.04-14.32-12.48-29.17-10.26-44.35c5.54-37.84,45.63-61.34,47.33-62.32l12.5-7.21c7.15-4.12,15.72,2.46,13.57,10.43
				l-3.74,13.93c-2.33,8.67-1.79,15.35,1.63,20.42c4.2,6.21,12.39,9.87,18.81,11.76c2.03,0.6,4.21,0.5,6.17-0.32
				c28.08-11.8,59.21-18.02,90.55-18.02c28.07,0,56.27,5.07,81.94,14.7c1.63,0.61,3.39,0.77,5.1,0.43
				c4.28-0.86,9.65-2.76,12.81-6.61c3.46-4.21,4.32-11,2.57-20.2l-2.32-12.19c-1.45-7.62,6.55-13.55,13.42-9.93l10.98,5.78
				c1.55,0.82,38.04,20.38,45.9,54.51c2.95,12.81,1.62,25.63-3.95,38.3c-1.41,3.21-0.89,6.96,1.38,9.64
				c9.07,10.73,16.76,22.26,22.98,34.46c0.82,1.6,2.11,2.91,3.67,3.8c29.71,16.8,45.92,46.47,41.73,77.6
				c-2.38,17.66-11.09,33.72-25.19,46.45c-14.56,13.15-34.56,22.14-57.86,26.02C369.35,407.09,318.49,411.46,263.1,411.46
				C263.11,411.46,263.11,411.46,263.1,411.46z"/>
			<path class="st1" d="M433.72,259.05c-8.47-18.78-20.68-35.92-35.81-50.74l-0.03-0.01c-0.01-0.01-0.02-0.02-0.04-0.04l0.07,0.04
				c38.17-51.98-27.31-86.46-27.31-86.46c8.48,44.51-32.93,45.51-35.62,45.53c-55.46-22.57-120.02-20.6-173.14,4.04
				c-1.91-0.23-52.88-6.77-40.51-52.84c0,0-74.12,42.72-21.42,98.51l0.02-0.02c1.88-2.12,3.82-4.2,5.82-6.23
				c-12.05,12.4-22.41,26.69-30.56,42.84C17.91,271.5,7.59,336.35,55.9,367.34c7.37,3.83,17.38,7.42,29.56,10.68
				c37.59,10.06,95.83,17.07,161.32,18.07c62.54,0.98,118.63-3.73,156.54-11.88l0.02-0.01C488.9,370.28,495.87,287.5,433.72,259.05z
				 M403.33,384.17l-0.02-0.27c0.02,0.09,0.02,0.18,0.04,0.27L403.33,384.17z"/>
		</g>
	</g>
	<path class="st2" d="M125.77,298.69c-0.05,7.25-6.92,13.07-15.36,13.01c-8.44-0.06-15.22-5.97-15.19-13.19
		c0.06-7.23,6.92-13.07,15.36-13.01C119.02,285.57,125.81,291.47,125.77,298.69z"/>
	<path class="st2" d="M166.84,248.28c-0.91,4.23-7.22,10.17-15.35,3.19c-9.09-7.81-14.97-4.78-17.2-8.49
		c-3.01-5.01,3.55-12.68,11.72-11.06C160.63,234.82,167.68,244.21,166.84,248.28z"/>
	<path class="st2" d="M191.55,192.59c-0.05,6.05-5.64,11.58-13.26,11.54c-7.62-0.05-16.52-3.35-16.47-9.38
		c0.03-6.04,8.35-12.02,15.98-11.95C185.42,182.85,191.58,186.57,191.55,192.59z"/>
	<path class="st2" d="M324.83,196.28c-0.03,5.88-7.96,6.53-16.97,6.48c-9.02-0.07-15.04-5.5-14.99-11.39
		c0.02-5.9,6.73-7.8,15.73-7.75C317.62,183.67,324.87,190.4,324.83,196.28z"/>
	<path class="st2" d="M350.33,240.41c-2.29,3.7-8.13,0.58-17.32,8.28c-8.21,6.88-14.47,0.86-15.29-3.39
		c-0.81-4.07,6.36-13.38,21.02-16.1C346.93,227.69,353.39,235.43,350.33,240.41z"/>
	<path class="st2" d="M394.65,293.26c-0.06,7.23-6.93,13.05-15.37,12.99c-8.42-0.04-15.22-5.97-15.19-13.19
		c0.06-7.23,6.93-13.05,15.37-12.99C387.88,280.11,394.67,286.02,394.65,293.26z"/>
	<path class="st2" d="M344.04,309.4c0.09,1.13,0.14,2.25,0.13,3.38c-0.22,34.97-46.42,50.9-100.55,50.54
		c-53.15-0.34-98.43-19.3-99.83-53.06c-0.02-0.64-0.03-1.26-0.03-1.92c0.22-34.97,48.57-73.08,102.72-72.73
		C298.88,235.94,341.59,275.18,344.04,309.4z"/>
	<path class="st2" d="M403.31,383.9c0.02,0.09,0.02,0.17,0.04,0.26l-0.02,0.01L403.31,383.9z"/>
	<path class="st2" d="M397.9,208.31l-0.03-0.01c-1.04-1.01-2.07-2-3.13-3L397.9,208.31z"/>
	<path class="st2" d="M403.31,383.9c0.02,0.09,0.02,0.17,0.04,0.26l-0.02,0.01L403.31,383.9z"/>
	<path class="st2" d="M86.79,364.97l-1.33,13C85.36,377.38,84.62,372.48,86.79,364.97z"/>
	<path class="st3" d="M185.63,193.73c-7.77,3.62-15.12,7.86-21.94,12.64c-8.05,5.63-15.36,12.03-21.83,19.05
		c0,0-0.29-10.89,0.01-22.82c0.31-11.94,1.23-24.94,3.67-29.17c0.33-0.57,0.68-1.06,1.05-1.49c5.21-6.02,14.55,0.23,14.55,0.23
		L185.63,193.73z"/>
	<path class="st4" d="M246.47,235.61c-54.15-0.35-102.5,37.76-102.72,72.73c0,0.65,0.01,1.28,0.03,1.92
		c1.4,33.76,46.68,52.73,99.83,53.06c54.13,0.36,100.33-15.57,100.55-50.54c0.01-1.13-0.04-2.25-0.13-3.38
		C341.59,275.18,298.88,235.94,246.47,235.61z M280.3,253.39c-0.04,4.16-13.55,8.14-28.27,9.29c-0.16,3.81-0.62,13.28-0.86,14.91
		c-0.29,2.05,2.23,2.93,2.23,2.93s12.03,6.33,14.4,6.83c2.34,0.49,3.14-1.4,3.14-1.4c7.3-10.27,12.44-6.81,12.44-6.81
		s2.95,3.47-0.04,6.28c-3,2.79-6.64,8.19-7.99,11.08s-0.15,12.86-1.04,14.41c-0.89,1.58-3.79,1.96-5.66-0.19
		c-1.87-2.11-2.45-9.04-2.28-11.1c0.18-2.09-0.85-2.24-0.85-2.24s-10.22-6.2-13.26-8.02c-3.06-1.81-6.6-0.05-6.6-0.05
		s-11.34,6.76-13.23,8.01c-0.23,0.15-0.41,0.29-0.54,0.38c-0.13,0.1-0.23,0.15-0.26,0.2c-0.11,0.09-0.2,0.16-0.28,0.24
		c-0.18,0.18-0.28,0.29-0.31,0.33c-0.08,0.1-0.11,0.17-0.14,0.21s-0.04,0.07-0.03,0.09c-0.02,0.01-0.03,0.04-0.02,0.06
		c0,0.05-0.02,0.06,0.01,0.07c-0.01,0.03-0.01,0.03-0.01,0.03c0.47,13.03-1.51,14.59-4.72,14c-3.21-0.54-3.04-3.21-3.69-11.37
		c-0.65-8.17-4.88-10.78-4.88-10.78s-1.39-1.26-3.27-2.6c-1.88-1.35-3.12-3.63-1.99-4.87c1.1-1.25,3.61-1.85,6.27-1.23
		c2.68,0.66,6.49,4.22,7.8,5.71c1.32,1.51,2.89,1.27,2.89,1.27s9.68-3.86,11.18-5.1c1.5-1.24,3-4.52,3-4.52l0.72-16.59
		c-15.66-0.43-32.12-4.08-32.09-8.52c0.01-4.67,20.09-12.69,36.46-12.58C264.92,241.86,280.33,248.71,280.3,253.39z"/>
	<path class="st3" d="M358.05,220.67l-2.31-2.2c-5.4-5.03-11.28-9.68-17.59-13.89c-8.08-5.39-16.84-10.03-26.17-13.81l24.82-21.3
		c0,0,9.67-6.29,14.73,0.2l0.01,0.01c0.3,0.37,0.57,0.78,0.84,1.25C357.13,179.44,358.05,220.67,358.05,220.67z"/>
	<path class="st5" d="M397.9,208.31l-0.03-0.01c-1.04-1.01-2.07-2-3.13-3L397.9,208.31z"/>
	<path class="st4" d="M403.31,383.9c0.02,0.09,0.02,0.17,0.04,0.26l-0.02,0.01L403.31,383.9z"/>
	<path class="st1" d="M191.55,192.59c-0.05,6.05-5.64,11.58-13.26,11.54c-7.62-0.05-16.52-3.35-16.47-9.38
		c0.03-6.04,8.35-12.02,15.98-11.95C185.42,182.85,191.58,186.57,191.55,192.59z"/>
	<path class="st1" d="M324.83,196.28c-0.03,5.88-7.96,6.53-16.97,6.48c-9.02-0.07-15.04-5.5-14.99-11.39
		c0.02-5.9,6.73-7.8,15.73-7.75C317.62,183.67,324.87,190.4,324.83,196.28z"/>
	<path class="st6" d="M283.33,285.41c-3,2.8-6.64,8.19-7.99,11.08c-1.35,2.89-0.16,12.86-1.03,14.42c-0.88,1.57-3.78,1.94-5.65-0.19
		c-1.87-2.13-2.45-9.04-2.28-11.12c0.17-2.08-0.85-2.24-0.85-2.24s-10.23-6.18-13.27-8.01c-3.05-1.82-6.59-0.04-6.59-0.04
		s-11.34,6.75-13.23,8c-1.89,1.24-1.58,1.64-1.58,1.64c0.46,13.02-1.51,14.58-4.72,14c-3.21-0.57-3.04-3.23-3.69-11.39
		c-0.65-8.16-4.87-10.78-4.87-10.78s-1.4-1.26-3.28-2.61c-1.87-1.34-3.11-3.62-2-4.87c1.1-1.25,3.62-1.86,6.28-1.22
		c2.67,0.65,6.49,4.2,7.81,5.7c1.32,1.5,2.89,1.28,2.89,1.28s9.67-3.86,11.17-5.1c1.5-1.25,3.01-4.54,3.01-4.54l0.73-16.57
		c-15.68-0.44-32.14-4.08-32.11-8.53c0.03-4.68,20.11-12.69,36.47-12.58c16.37,0.11,31.79,6.97,31.76,11.64
		c-0.03,4.16-13.55,8.15-28.26,9.31c-0.17,3.79-0.62,13.28-0.86,14.9c-0.29,2.04,2.22,2.92,2.22,2.92s12.04,6.34,14.39,6.83
		c2.35,0.49,3.14-1.39,3.14-1.39c7.29-10.28,12.44-6.82,12.44-6.82S286.32,282.61,283.33,285.41z"/>
	<path class="st6" d="M166.84,248.28c-0.91,4.23-7.22,10.17-15.35,3.19c-9.09-7.81-14.97-4.78-17.2-8.49
		c-3.01-5.01,3.55-12.68,11.72-11.06C160.63,234.82,167.68,244.21,166.84,248.28z"/>
	<path class="st6" d="M350.33,240.41c-2.29,3.7-8.13,0.58-17.32,8.28c-8.21,6.88-14.47,0.86-15.29-3.39
		c-0.81-4.07,6.36-13.38,21.02-16.1C346.93,227.69,353.39,235.43,350.33,240.41z"/>
	<path class="st7" d="M394.65,293.26c-0.06,7.23-6.93,13.05-15.37,12.99c-8.42-0.04-15.22-5.97-15.19-13.19
		c0.06-7.23,6.93-13.05,15.37-12.99C387.88,280.11,394.67,286.02,394.65,293.26z"/>
	<path class="st7" d="M125.77,298.69c-0.05,7.25-6.92,13.07-15.36,13.01c-8.44-0.06-15.22-5.97-15.19-13.19
		c0.06-7.23,6.92-13.07,15.36-13.01C119.02,285.57,125.81,291.47,125.77,298.69z"/>
	<g>
		<path class="st4" d="M403.31,383.9l0.02,0.27l0.01,0.02l-0.02,0.01c-37.91,8.16-94,12.87-156.54,11.89
			c-65.48-1-123.73-8.01-161.32-18.06c0,0-0.01-0.02,0-0.05c-0.1-0.6-0.85-5.49,1.33-13l0-0.05c3.78-13.21,16.47-34.47,56.95-54.69
			l0.04,0.03c1.4,33.76,46.68,52.73,99.83,53.06c54.13,0.36,100.33-15.57,100.55-50.54c0.01-1.13-0.04-2.25-0.13-3.38l0.15-0.06
			C344.19,309.34,397.37,314.66,403.31,383.9z"/>
		<g>
			<path class="st2" d="M433.72,259.05c-8.47-18.78-20.68-35.92-35.81-50.74l-0.03-0.01c-93.3-90.96-264.44-69.99-322.68,45.39
				c-57.28,17.82-67.6,82.66-19.29,113.66c7.37,3.83,17.38,7.42,29.56,10.68c0,0-0.01-0.02,0-0.05c-0.1-0.6-0.85-5.49,1.33-13.01
				v-0.05c3.78-13.21,16.47-34.47,56.95-54.69l0.04,0.03c-1.24-36.57,48.53-75.23,103.47-74.64c52.37,0.74,94.2,39.72,96.78,73.78
				l0.15-0.06c0,0,53.18,5.32,59.12,74.55c0.02,0.09,0.02,0.18,0.04,0.27l-0.02,0.01l0.01,0.02
				C488.9,370.28,495.87,287.5,433.72,259.05z M110.41,311.7c-20.94-1.17-19.39-25.83,0.17-26.19
				C131.52,286.68,129.98,311.35,110.41,311.7z M166.83,248.28c-0.91,4.23-7.22,10.17-15.35,3.18c-9.09-7.8-14.97-4.77-17.2-8.49
				c-3.01-5.01,3.55-12.69,11.72-11.07C160.63,234.82,167.68,244.21,166.83,248.28z M178.29,204.12
				c-27.12-1.26-16.3-22.46,1.68-21.21C197.72,184.57,193.4,203.83,178.29,204.12z M307.86,202.76
				c-9.02-0.07-15.04-5.49-14.99-11.39c0.02-5.9,6.73-7.8,15.74-7.75c9.01,0.05,16.25,6.77,16.22,12.66
				C324.8,202.16,316.87,202.81,307.86,202.76z M350.33,240.41c-1.99,3.23-6.95,1.22-14.53,6.18c-13.24,12.12-20.28-0.67-17.48-4.59
				C323.99,228.98,354.64,222.41,350.33,240.41z M379.27,306.25c-20.93-1.16-19.39-25.82,0.18-26.17
				C400.37,281.22,398.86,305.9,379.27,306.25z"/>
			<path class="st8" d="M397.91,208.31l-0.07-0.04c-17.88-17.49-39.42-31.3-62.99-40.88c0,0,44.52,0.46,35.75-45.53
				C370.6,121.85,436.08,156.33,397.91,208.31z"/>
			<path class="st8" d="M161.9,171.43c-23.51,10.93-44.89,26.43-61.96,45.65l-0.02,0.02c-52.7-55.79,21.42-98.51,21.42-98.51
				C108.72,165.53,161.9,171.43,161.9,171.43z"/>
		</g>
	</g>
</g>
</svg>
